<svg width="24" height="24" viewBox="0 0 24 24" fill="none" xmlns="http://www.w3.org/2000/svg">
<path d="M7.53846 17.7662L7.50705 17.806C8.76562 18.418 10.2112 18.7647 11.7415 18.7998L12 18.8027C16.574 18.8027 20.9967 15.1873 21 10.9165C20.8786 7.26712 18.8988 5 15.9045 5C14.2706 5 12.7632 5.76074 11.8088 7.02295M7.53846 17.7662L8.11819 17.0012L8.99439 15.8094M7.53846 17.7662L7.17587 18.2239L6.96425 18.475C6.94364 18.4985 6.92401 18.5204 6.90535 18.5409C6.38755 19.1086 5.4994 19.1564 4.92161 18.6476C4.34383 18.1388 4.2952 17.2662 4.81301 16.6985L4.96691 16.5191L5.17579 16.2585L5.63952 15.653M8.99439 15.8094L9.19588 15.5292C10.0331 15.8618 10.9839 16.0422 11.9996 16.0422C15.1248 16.0422 18.1883 13.5382 18.1911 10.9609C18.1169 8.74603 17.2564 7.76056 15.9045 7.76056C15.2252 7.76056 14.5979 8.05074 14.1676 8.54215L14.0531 8.6855L10.2572 14.0561L8.99439 15.8094ZM11.8088 7.02295L11.9561 6.83741L12.0001 6.78595C11.0422 5.66613 9.624 5 8.09515 5C5.10081 5 3.12105 7.26712 3 10.9479C3.05085 13.0706 3.8854 14.8624 5.2232 16.1961L5.63952 15.653M11.8088 7.02295L10.291 9.17305L9.9465 8.6855L9.83197 8.54215C9.4017 8.05074 8.77442 7.76056 8.09515 7.76056C6.74323 7.76056 5.88267 8.74603 5.80849 10.9609C5.83676 12.106 6.239 13.1117 6.91371 13.9198L6.37298 14.6633M11.8088 7.02295L9.07474 10.8992L7.28128 13.4123L6.37298 14.6633M6.37298 14.6633L5.63952 15.653M18.6636 16.0497L18.8238 16.2585L19.0902 16.5881L19.1866 16.6985C19.7044 17.2662 19.6558 18.1388 19.078 18.6476C18.5002 19.1564 17.6121 19.1086 17.0943 18.5409C17.0756 18.5204 17.056 18.4985 17.0354 18.475L16.8237 18.2239L16.5603 17.8936L16.4023 17.688C17.239 17.248 18.0059 16.6928 18.6636 16.0497ZM13.7066 9.17397L14.4122 10.1744L16.5513 13.1803L16.987 13.7789C16.3885 14.4504 15.6057 15.0236 14.7293 15.4252L13.7424 14.0561L11.9993 11.5895L13.7066 9.17397Z" stroke="black" stroke-linejoin="round"/>
</svg>
