<svg width="24" height="24" viewBox="0 0 24 24" fill="none" xmlns="http://www.w3.org/2000/svg">
<path d="M9.05735 5.91352L9.4223 5.78679C11.0919 5.20704 12.9081 5.20704 14.5777 5.78679L14.9426 5.91352C15.9748 6.27193 16.521 7.39922 16.1626 8.43138C16.1262 8.53616 16.0811 8.63769 16.0277 8.73491C15.2843 10.0881 14.8374 11.5839 14.7167 13.1231L14.5777 14.894C12.9516 15.6909 11.0484 15.6909 9.4223 14.894L9.28333 13.1231C9.16255 11.5839 8.71566 10.0881 7.97234 8.73491C7.44629 7.77726 7.79618 6.57448 8.75383 6.04844C8.85104 5.99503 8.95258 5.9499 9.05735 5.91352ZM4.68671 14.5092L6.69101 15.688C7.13399 15.9486 7.70405 15.8061 7.97234 15.3677C8.28431 14.8581 8.76764 14.4762 9.33567 14.2906L9.4223 14.2623L9.34685 13.4487C9.18408 11.6936 8.66217 9.99071 7.81354 8.44581L7.40847 7.7084L6.5714 8.04755C5.1769 8.61256 4.07477 9.72421 3.52178 11.1235C3.02326 12.385 3.51756 13.8215 4.68671 14.5092ZM3.25998 13.67L3.86413 14.0254L5.07242 14.736L5.65521 15.0788C5.97969 15.2696 6.09341 15.684 5.91179 16.0138L4.26689 19C3.14967 17.6062 2.74425 15.772 3.16991 14.0372L3.25998 13.67ZM19.3133 14.5092L17.309 15.688C16.866 15.9486 16.296 15.8061 16.0277 15.3677C15.7157 14.8581 15.2324 14.4762 14.6643 14.2906L14.5777 14.2623L14.6532 13.4487C14.8159 11.6936 15.3378 9.99071 16.1865 8.44581L16.5915 7.7084L17.4286 8.04755C18.8231 8.61256 19.9252 9.72421 20.4782 11.1235C20.9767 12.385 20.4824 13.8215 19.3133 14.5092ZM20.74 13.67L20.1359 14.0254L18.9276 14.736L18.3448 15.0788C18.0203 15.2696 17.9066 15.684 18.0882 16.0138L19.7331 19C20.8503 17.6062 21.2557 15.772 20.8301 14.0372L20.74 13.67Z" stroke="black" stroke-linejoin="round"/>
</svg>
