<svg width="24" height="24" viewBox="0 0 24 24" fill="none" xmlns="http://www.w3.org/2000/svg">
<path d="M19 14C19 13.7912 18.936 13.5974 18.8266 13.4379C18.9399 12.9772 19 12.4956 19 12C19 8.68629 16.3137 6 13 6H11C10.2263 6 9.48689 6.14643 8.80953 6.41281C8.62777 6.16265 8.33288 6 8 6M19 14C19 14.4804 18.6613 14.8816 18.2097 14.978C17.1758 16.7835 15.23 18 13 18H11C10.2263 18 9.48689 17.8536 8.80784 17.5869C8.62777 17.8374 8.33288 18 8 18M19 14C19 13.4477 18.5523 13 18 13C17.4477 13 17 13.4477 17 14C17 14.5523 17.4477 15 18 15C18.5523 15 19 14.5523 19 14ZM8 18C7.44772 18 7 17.5523 7 17M8 18C8.55228 18 9 17.5523 9 17C9 16.4477 8.55228 16 8 16C7.44772 16 7 16.4477 7 17M7 17C7 16.8422 7.03655 16.6929 7.10164 16.5602L7.06356 16.5283C5.79923 15.4283 5 13.8075 5 12C5 10.1925 5.79923 8.57171 7.06356 7.4717L7.10164 7.43977C7.03655 7.30706 7 7.1578 7 7M7 7C7 6.44772 7.44772 6 8 6M7 7C7 7.55228 7.44772 8 8 8C8.55228 8 9 7.55228 9 7C9 6.44772 8.55228 6 8 6M12 6C14.2091 6 16 7.79086 16 10V10.5V11C16 13.2091 14.2091 15 12 15H11.3333C9.49238 15 8 13.6569 8 12C8 10.3431 9.11929 9 10.5 9C11.8807 9 13 10.3431 13 12M14.1213 11.1213C13.5784 11.6642 12.8284 12 12 12C11.1716 12 10.4216 11.6642 9.87868 11.1213M10 4H14C17.866 4 21 7.13401 21 11V13C21 16.866 17.866 20 14 20H10C6.13401 20 3 16.866 3 13V11C3 7.13401 6.13401 4 10 4Z" stroke="black" stroke-linejoin="round"/>
</svg>
