<svg width="24" height="24" viewBox="0 0 24 24" fill="none" xmlns="http://www.w3.org/2000/svg">
<path d="M10.073 13.927L10.2106 13.0118L10.3534 12.1399L10.5015 11.3113L10.6548 10.5262L10.8134 9.78436L10.9772 9.08592C11.5596 6.71725 12.2384 5.14536 13.0135 4.37026C14.8405 2.54325 17.8027 2.54325 19.6297 4.37026M10.073 13.927L10.9882 13.7894L11.8601 13.6466L12.6887 13.4985L13.4738 13.3452L14.2156 13.1866L14.9141 13.0228C17.2828 12.4404 18.8546 11.7616 19.6297 10.9865C21.4568 9.15946 21.4568 6.19728 19.6297 4.37026M10.073 13.927C13.7487 12.7018 16.4441 11.2315 18.1595 9.51621C20.7324 6.94324 20.7324 5.47297 19.6297 4.37026M10.073 13.927C11.2982 10.2513 12.7685 7.55585 14.4838 5.84054C17.0568 3.26756 18.527 3.26756 19.6297 4.37026M19.5 4.5L8.5 15.5M7.5 14.2946L8.97027 15.0297L9.70541 16.5L5.66216 20.5432C5.05316 21.1523 4.06576 21.1523 3.45675 20.5432C2.84775 19.9342 2.84775 18.9468 3.45675 18.3378L7.5 14.2946Z" stroke="black" stroke-linejoin="round"/>
</svg>
